<?xml version="1.0" encoding="UTF-8"?>
<svg width="200" height="100" viewBox="0 0 200 100" fill="none" xmlns="http://www.w3.org/2000/svg">
  <path d="M128.53 28.5H71.47c-4.973 0-9.01 4.037-9.01 9.01v25.98c0 4.973 4.037 9.01 9.01 9.01h57.06c4.973 0 9.01-4.037 9.01-9.01V37.51c0-4.973-4.037-9.01-9.01-9.01zM84.84 65l5.1-4.6-5.1-4.5V65zm29.5-24.5v17.24c0 1.56-1.5 2.96-3.06 2.96-5.1 0-10.2-2.7-10.2-12.75 0-8.2 4.08-10.8 9.18-10.8.91 0 3.06.52 4.08 1.3v2.05zm0-7.65c-1.02-.77-3.06-1.3-4.08-1.3-9.18 0-13.26 6.15-13.26 18.45 0 14.8 7.65 16.83 13.26 16.83 6.63 0 8.16-4.6 8.16-6.9V32.85h-4.08z" fill="#6567A5"/>
</svg>