<?xml version="1.0" encoding="UTF-8"?>
<svg width="200" height="100" viewBox="0 0 200 100" fill="none" xmlns="http://www.w3.org/2000/svg">
  <path d="M71.86 47.155c0-5.839-4.53-10.377-10.377-10.377-5.756 0-10.377 4.538-10.377 10.377 0 5.755 4.62 10.375 10.377 10.375 5.847 0 10.377-4.62 10.377-10.375zm21.34 0c0-5.839-4.538-10.377-10.377-10.377-5.847 0-10.377 4.538-10.377 10.377 0 5.755 4.53 10.375 10.377 10.375 5.84 0 10.377-4.62 10.377-10.375zm-10.376 21.342c-5.839 0-10.377 4.536-10.377 10.375 0 5.756 4.538 10.377 10.377 10.377 5.838 0 10.377-4.62 10.377-10.377 0-5.839-4.539-10.375-10.377-10.375zM123.06 29.13c-5.252 0-9.444 4.193-9.444 9.445 0 5.17 4.192 9.444 9.444 9.444s9.444-4.273 9.444-9.444c0-5.252-4.192-9.444-9.444-9.444zm10.381 0c-.937 0-1.687.75-1.687 1.687 0 .855.75 1.688 1.687 1.688a1.651 1.651 0 0 0 1.687-1.688c0-.937-.75-1.687-1.687-1.687zm16.6 7.756c0-4.275-3.426-7.756-7.756-7.756s-7.756 3.481-7.756 7.756 3.425 7.838 7.756 7.838 7.756-3.563 7.756-7.838zm-7.756-3.481c-1.875 0-3.425 1.55-3.425 3.48 0 1.876 1.55 3.426 3.425 3.426 1.875 0 3.425-1.55 3.425-3.425 0-1.932-1.55-3.481-3.425-3.481zM118.73 55.51c-5.252 0-9.444 4.193-9.444 9.444 0 5.252 4.192 9.444 9.443 9.444s9.444-4.192 9.444-9.444c0-5.251-4.192-9.444-9.444-9.444z" fill="#F26207"/>
</svg>