<?xml version="1.0" encoding="UTF-8"?>
<svg width="500" height="300" viewBox="0 0 500 300" fill="none" xmlns="http://www.w3.org/2000/svg">
  <!-- Background -->
  <rect width="500" height="300" rx="10" fill="#36393F"/>
  
  <!-- Discord Bot Message -->
  <rect x="50" y="40" width="400" height="220" rx="8" fill="#2F3136"/>
  
  <!-- Bot Avatar and Title -->
  <circle cx="75" cy="65" r="15" fill="#5865F2"/>
  <rect x="100" y="55" width="80" height="12" rx="2" fill="#FFFFFF"/>
  <rect x="190" y="57" width="40" height="8" rx="2" fill="#B9BBBE"/>
  
  <!-- Confirmation Title -->
  <rect x="100" y="85" width="300" height="16" rx="2" fill="#FFFFFF"/>
  
  <!-- Warning Icon -->
  <circle cx="115" cy="120" r="15" fill="#FAA61A" fill-opacity="0.8"/>
  <rect x="113" y="110" width="4" height="15" rx="2" fill="#36393F"/>
  <circle cx="115" cy="130" r="2" fill="#36393F"/>
  
  <!-- Warning Text -->
  <rect x="140" y="113" width="260" height="10" rx="2" fill="#B9BBBE"/>
  <rect x="140" y="128" width="230" height="10" rx="2" fill="#B9BBBE"/>
  
  <!-- Selected Channels Section -->
  <rect x="100" y="150" width="300" height="60" rx="5" fill="#202225"/>
  
  <!-- Channel Item Pills -->
  <rect x="110" y="160" width="80" height="20" rx="10" fill="#4F545C"/>
  <rect x="200" y="160" width="80" height="20" rx="10" fill="#4F545C"/>
  <rect x="290" y="160" width="80" height="20" rx="10" fill="#4F545C"/>
  <rect x="110" y="185" width="80" height="20" rx="10" fill="#4F545C"/>
  <rect x="200" y="185" width="80" height="20" rx="10" fill="#4F545C"/>
  
  <!-- Final Buttons -->
  <rect x="270" y="220" width="130" height="35" rx="5" fill="#ED4245"/>
  <rect x="130" y="220" width="130" height="35" rx="5" fill="#4F545C"/>
</svg>