<?xml version="1.0" encoding="UTF-8"?>
<svg width="1200" height="630" viewBox="0 0 1200 630" fill="none" xmlns="http://www.w3.org/2000/svg">
  <!-- Background -->
  <rect width="1200" height="630" fill="#5865F2"/>
  <rect x="50" y="50" width="1100" height="530" rx="20" fill="#36393F"/>
  
  <!-- Discord Interface Elements -->
  <rect x="100" y="100" width="400" height="430" rx="10" fill="#2F3136"/>
  <rect x="550" y="100" width="550" height="430" rx="10" fill="#2F3136"/>
  
  <!-- Bot Title and Avatar -->
  <circle cx="150" cy="150" r="40" fill="#5865F2"/>
  <rect x="210" y="130" width="200" height="20" rx="5" fill="#FFFFFF"/>
  <rect x="210" y="160" width="150" height="15" rx="5" fill="#B9BBBE"/>
  
  <!-- Channel List -->
  <rect x="120" y="220" width="360" height="20" rx="5" fill="#4F545C"/>
  <rect x="120" y="250" width="360" height="20" rx="5" fill="#4F545C"/>
  <rect x="120" y="280" width="360" height="20" rx="5" fill="#4F545C"/>
  <rect x="120" y="310" width="360" height="20" rx="5" fill="#4F545C"/>
  <rect x="120" y="340" width="360" height="20" rx="5" fill="#4F545C"/>
  
  <!-- Filter Buttons -->
  <rect x="120" y="400" width="100" height="30" rx="15" fill="#5865F2"/>
  <rect x="230" y="400" width="100" height="30" rx="15" fill="#4F545C"/>
  <rect x="340" y="400" width="100" height="30" rx="15" fill="#4F545C"/>
  
  <!-- Bot Interface -->
  <rect x="580" y="130" width="490" height="370" rx="8" fill="#202225"/>
  
  <!-- Selected Channels -->
  <rect x="600" y="150" width="450" height="40" rx="8" fill="#36393F"/>
  <rect x="600" y="200" width="450" height="40" rx="8" fill="#36393F"/>
  <rect x="600" y="250" width="450" height="40" rx="8" fill="#36393F"/>
  <rect x="600" y="300" width="450" height="40" rx="8" fill="#36393F"/>
  <rect x="600" y="350" width="450" height="40" rx="8" fill="#36393F"/>
  
  <!-- Action Buttons -->
  <rect x="820" y="430" width="160" height="50" rx="8" fill="#ED4245"/>
  <rect x="620" y="430" width="160" height="50" rx="8" fill="#4F545C"/>
  
  <!-- Branding -->
  <rect x="150" y="500" width="900" height="50" rx="8" fill="#202225"/>
  <text x="600" y="535" font-family="Arial" font-size="28" fill="white" text-anchor="middle">Discord Channel Deleter Bot</text>
</svg>