<?xml version="1.0" encoding="UTF-8"?>
<svg width="800" height="500" viewBox="0 0 800 500" fill="none" xmlns="http://www.w3.org/2000/svg">
  <!-- Discord-like message UI background -->
  <rect width="800" height="500" rx="10" fill="#36393F"/>
  
  <!-- Embed area for bot UI -->
  <rect x="50" y="100" width="700" height="300" rx="8" fill="#2F3136"/>
  
  <!-- Bot Profile -->
  <circle cx="90" cy="140" r="25" fill="#5865F2"/>
  <rect x="130" y="125" width="150" height="15" rx="3" fill="#FFFFFF"/>
  <rect x="130" y="150" width="100" height="10" rx="3" fill="#B9BBBE"/>
  
  <!-- Title -->
  <rect x="90" y="190" width="300" height="20" rx="3" fill="#FFFFFF"/>
  
  <!-- Buttons Row -->
  <rect x="90" y="230" width="120" height="35" rx="5" fill="#4F545C"/>
  <rect x="230" y="230" width="120" height="35" rx="5" fill="#4F545C"/>
  <rect x="370" y="230" width="120" height="35" rx="5" fill="#4F545C"/>
  
  <!-- Selected Channels Area -->
  <rect x="90" y="285" width="620" height="80" rx="5" fill="#202225"/>
  
  <!-- Channel Items in Grid -->
  <rect x="110" y="305" width="180" height="20" rx="3" fill="#4F545C"/>
  <rect x="110" y="335" width="180" height="20" rx="3" fill="#4F545C"/>
  <rect x="310" y="305" width="180" height="20" rx="3" fill="#4F545C"/>
  <rect x="310" y="335" width="180" height="20" rx="3" fill="#4F545C"/>
  <rect x="510" y="305" width="180" height="20" rx="3" fill="#4F545C"/>
  <rect x="510" y="335" width="180" height="20" rx="3" fill="#4F545C"/>
  
  <!-- Action Buttons -->
  <rect x="540" y="380" width="170" height="40" rx="5" fill="#5865F2"/>
  <rect x="350" y="380" width="170" height="40" rx="5" fill="#ED4245" fill-opacity="0.8"/>
</svg>