<?xml version="1.0" encoding="UTF-8"?>
<svg width="500" height="300" viewBox="0 0 500 300" fill="none" xmlns="http://www.w3.org/2000/svg">
  <!-- Background -->
  <rect width="500" height="300" rx="10" fill="#36393F"/>
  
  <!-- Discord Text Box -->
  <rect x="50" y="230" width="400" height="40" rx="8" fill="#40444B"/>
  
  <!-- Slash Command Icon -->
  <rect x="60" y="240" width="20" height="20" rx="3" fill="#B9BBBE"/>
  <path d="M65 250H75M70 245V255" stroke="#36393F" stroke-width="2" stroke-linecap="round"/>
  
  <!-- Command Text -->
  <rect x="90" y="240" width="320" height="8" rx="2" fill="#FFFFFF" fill-opacity="0.8"/>
  <rect x="90" y="253" width="200" height="8" rx="2" fill="#FFFFFF" fill-opacity="0.7"/>
  
  <!-- Bot Message Above -->
  <rect x="50" y="50" width="400" height="150" rx="8" fill="#2F3136"/>
  
  <!-- Bot Avatar -->
  <circle cx="75" cy="75" r="15" fill="#5865F2"/>
  <path d="M70 73H80M70 77H80" stroke="white" stroke-width="1.5" stroke-linecap="round"/>
  
  <!-- Bot Name and Timestamp -->
  <rect x="100" y="65" width="80" height="12" rx="2" fill="#FFFFFF"/>
  <rect x="190" y="67" width="40" height="8" rx="2" fill="#B9BBBE"/>
  
  <!-- Bot Command Title -->
  <rect x="100" y="90" width="200" height="16" rx="2" fill="#FFFFFF"/>
  
  <!-- Bot Command Description -->
  <rect x="100" y="115" width="320" height="10" rx="2" fill="#B9BBBE"/>
  <rect x="100" y="130" width="280" height="10" rx="2" fill="#B9BBBE"/>
  
  <!-- Command Buttons -->
  <rect x="100" y="160" width="100" height="30" rx="5" fill="#5865F2"/>
  <rect x="210" y="160" width="100" height="30" rx="5" fill="#4F545C"/>
</svg>