<?xml version="1.0" encoding="UTF-8"?>
<svg width="500" height="300" viewBox="0 0 500 300" fill="none" xmlns="http://www.w3.org/2000/svg">
  <!-- Background -->
  <rect width="500" height="300" rx="10" fill="#36393F"/>
  
  <!-- Discord Bot Message -->
  <rect x="50" y="40" width="400" height="220" rx="8" fill="#2F3136"/>
  
  <!-- Bot Avatar and Title -->
  <circle cx="75" cy="65" r="15" fill="#5865F2"/>
  <rect x="100" y="55" width="80" height="12" rx="2" fill="#FFFFFF"/>
  <rect x="190" y="57" width="40" height="8" rx="2" fill="#B9BBBE"/>
  
  <!-- Filter Selector -->
  <rect x="100" y="85" width="300" height="35" rx="5" fill="#202225"/>
  
  <!-- Filter Buttons -->
  <rect x="110" y="92" width="80" height="20" rx="10" fill="#5865F2"/>
  <rect x="200" y="92" width="80" height="20" rx="10" fill="#4F545C"/>
  <rect x="290" y="92" width="80" height="20" rx="10" fill="#4F545C"/>
  
  <!-- Channel Selection Grid -->
  <rect x="100" y="130" width="300" height="90" rx="5" fill="#202225"/>
  
  <!-- Channel Rows with Checkboxes -->
  <!-- Row 1 -->
  <rect x="110" y="140" width="16" height="16" rx="3" stroke="#5865F2" stroke-width="2" fill="#36393F"/>
  <path d="M114 148L118 152L122 144" stroke="#5865F2" stroke-width="2" stroke-linecap="round" stroke-linejoin="round"/>
  <rect x="136" y="143" width="250" height="10" rx="2" fill="#B9BBBE"/>
  
  <!-- Row 2 -->
  <rect x="110" y="166" width="16" height="16" rx="3" stroke="#5865F2" stroke-width="2" fill="none"/>
  <rect x="136" y="169" width="250" height="10" rx="2" fill="#B9BBBE"/>
  
  <!-- Row 3 -->
  <rect x="110" y="192" width="16" height="16" rx="3" stroke="#5865F2" stroke-width="2" fill="#36393F"/>
  <path d="M114 200L118 204L122 196" stroke="#5865F2" stroke-width="2" stroke-linecap="round" stroke-linejoin="round"/>
  <rect x="136" y="195" width="250" height="10" rx="2" fill="#B9BBBE"/>
  
  <!-- Action Buttons -->
  <rect x="300" y="230" width="100" height="30" rx="5" fill="#5865F2"/>
  <rect x="190" y="230" width="100" height="30" rx="5" fill="#4F545C"/>
</svg>